<svg xmlns="http://www.w3.org/2000/svg" viewBox="0 0 395.1 379.1"><defs><style>.cls-1{fill:#000200;}</style></defs><title>Ресурс 1</title><g id="Слой_2" data-name="Слой 2"><g id="Layer_1" data-name="Layer 1"><path class="cls-1" d="M0,287.8H12.9q7.65,0,11.7,2.7c2.6,1.8,3.9,5,3.9,9.7a19.6,19.6,0,0,1-1.2,7.5,8.27,8.27,0,0,1-4.5,4.3l6.5,22.8H18.6l-5.2-21.1h-3v21.1H0Zm13.3,19.9a5.3,5.3,0,0,0,4.4-1.7,8.58,8.58,0,0,0,1.2-5,8.1,8.1,0,0,0-1.2-4.8c-.8-1.1-2.1-1.6-4-1.6H10.3v13h3Z"/><path class="cls-1" d="M43.3,331.5c-2.2-2.6-3.2-6.5-3.2-11.6V302.4c0-5.1,1.1-8.9,3.2-11.5s5.8-3.9,10.8-3.9,8.7,1.3,10.9,3.9,3.3,6.4,3.3,11.5v17.5c0,5.1-1.1,9-3.3,11.6s-5.8,3.9-10.9,3.9S45.5,334.2,43.3,331.5Zm13.8-4.9a9,9,0,0,0,.7-4V300a9.45,9.45,0,0,0-.7-4.1,2.87,2.87,0,0,0-2.9-1.5,2.81,2.81,0,0,0-2.8,1.5,9,9,0,0,0-.7,4v22.6a10.87,10.87,0,0,0,.6,4,2.72,2.72,0,0,0,2.8,1.5C55.7,328.1,56.6,327.6,57.1,326.6Z"/><path class="cls-1" d="M83.1,331.4c-2.1-2.7-3.2-6.6-3.2-11.6V302.9c0-5.2,1.1-9.1,3.2-11.7s5.8-4,10.9-4c4.9,0,8.4,1.2,10.4,3.5s3.1,5.7,3.1,10v4.1H97.3v-4.7a11.68,11.68,0,0,0-.6-4.2c-.4-1-1.3-1.5-2.8-1.5a2.87,2.87,0,0,0-2.9,1.5,9.85,9.85,0,0,0-.7,4.3v22.1a9.85,9.85,0,0,0,.7,4.3,2.87,2.87,0,0,0,2.9,1.5,2.81,2.81,0,0,0,2.8-1.5,11.92,11.92,0,0,0,.6-4.3v-4.9h10.2v4.1c0,4.4-1,7.8-3.1,10.3s-5.5,3.7-10.4,3.7C88.9,335.5,85.3,334.1,83.1,331.4Z"/><path class="cls-1" d="M119.1,287.8h10.4V307l7.9-19.2h10.1L138.8,309l9.1,25.8H137.3L130.5,314l-1.1,1.9v18.9H119v-47Z"/><path class="cls-1" d="M158.7,287.8h21.1v7.1H169.1v11.7h8.2v7.2h-8.2v14h10.8v7H158.7v-47Z"/><path class="cls-1" d="M196.7,295.5h-7.1v-7.7h24.5v7.7h-7v39.3H196.7Z"/><path class="cls-1" d="M243.9,328.7a14.61,14.61,0,0,0,3.4-.3A2.65,2.65,0,0,0,249,327a7.75,7.75,0,0,0,.5-3V287.8h10.4v36.7a17.07,17.07,0,0,1-1,6.5,7.42,7.42,0,0,1-3.4,3.8,13.57,13.57,0,0,1-6.6,1.3h-5Z"/><path class="cls-1" d="M277.6,333.8a8.83,8.83,0,0,1-4.3-5,25.55,25.55,0,0,1-1.2-8.5V287.8h10.2v34a11.17,11.17,0,0,0,.7,4.5,2.94,2.94,0,0,0,2.9,1.7,2.85,2.85,0,0,0,2.9-1.7,11.17,11.17,0,0,0,.7-4.5v-34h10.3v32.4a23,23,0,0,1-1.3,8.5,9.63,9.63,0,0,1-4.3,5,17.41,17.41,0,0,1-8.3,1.7A16.37,16.37,0,0,1,277.6,333.8Z"/><path class="cls-1" d="M312.1,287.8h10.4v47H312.1Z"/><path class="cls-1" d="M337.7,331.4c-2.1-2.7-3.2-6.6-3.2-11.6V302.9c0-5.2,1.1-9.1,3.2-11.7s5.8-4,10.9-4c4.9,0,8.4,1.2,10.4,3.5s3.1,5.7,3.1,10v4.1H351.9v-4.7a11.68,11.68,0,0,0-.6-4.2c-.4-1-1.3-1.5-2.8-1.5a2.87,2.87,0,0,0-2.9,1.5,9.85,9.85,0,0,0-.7,4.3v22.1a9.85,9.85,0,0,0,.7,4.3,2.87,2.87,0,0,0,2.9,1.5,2.81,2.81,0,0,0,2.8-1.5,11.92,11.92,0,0,0,.6-4.3v-4.9h10.2v4.1c0,4.4-1,7.8-3.1,10.3s-5.5,3.7-10.4,3.7C343.5,335.5,339.9,334.1,337.7,331.4Z"/><path class="cls-1" d="M373.7,287.8h21.1v7.1H384.1v11.7h8.2v7.2h-8.2v14h10.8v7H373.7v-47Z"/><path class="cls-1" d="M0,378.6V357.3H13.9v1.4H1.6v8.5H12.1v1.3H1.6v10.1Z"/><path class="cls-1" d="M24.4,378.6V357.3h1.5v21.3Z"/><path class="cls-1" d="M38.7,378.6V357.3h1.5v19.9H52.9v1.4H38.7Z"/><path class="cls-1" d="M82.5,378.6V360.2l-8.4,14.4h-1l-8.4-14.4v18.4H63.2V357.3h1.5l8.9,15.2,8.9-15.2H84v21.3Z"/><path class="cls-1" d="M112.3,378.6V357.3h8.8a5.42,5.42,0,0,1,2.5.6,6.7,6.7,0,0,1,3.3,3.6,6.88,6.88,0,0,1,.1,4.9,7.19,7.19,0,0,1-1.2,2.1,7,7,0,0,1-1.9,1.5,5.13,5.13,0,0,1-2.5.6H114v8h-1.7Zm1.5-9.4h7.4a3.82,3.82,0,0,0,3.3-1.6,4.61,4.61,0,0,0,.9-1.7,6.45,6.45,0,0,0,.3-2,4.48,4.48,0,0,0-.4-2,9.5,9.5,0,0,0-1-1.7,3.27,3.27,0,0,0-1.5-1.1,3.92,3.92,0,0,0-1.8-.4h-7.2v10.5Z"/><path class="cls-1" d="M137.9,378.6V357.3h8.9a5.42,5.42,0,0,1,2.5.6,6.7,6.7,0,0,1,3.3,3.6,6.87,6.87,0,0,1,.5,2.4,6.2,6.2,0,0,1-.4,2.3,7.5,7.5,0,0,1-1,2,4.28,4.28,0,0,1-1.6,1.4,7,7,0,0,1-2,.8l5.3,8.3h-1.8l-5.2-8h-6.9v8h-1.6Zm1.5-9.4h7.5a3.82,3.82,0,0,0,3.3-1.6,4.61,4.61,0,0,0,.9-1.7,6.8,6.8,0,0,0,.3-1.9,4.77,4.77,0,0,0-.4-2,6.93,6.93,0,0,0-1-1.7,4.43,4.43,0,0,0-1.5-1.2,3.92,3.92,0,0,0-1.8-.4h-7.3v10.5Z"/><path class="cls-1" d="M173,378.8a8.72,8.72,0,0,1-4-.9,9.23,9.23,0,0,1-3.1-2.4,8.68,8.68,0,0,1-2-3.5,10.88,10.88,0,0,1-.7-4,11.5,11.5,0,0,1,.8-4.1,11.26,11.26,0,0,1,2.1-3.5,9.63,9.63,0,0,1,3.2-2.4,9,9,0,0,1,4-.9,8.92,8.92,0,0,1,7.2,3.4,11,11,0,0,1,2,3.5,10.72,10.72,0,0,1,.7,3.9,11.5,11.5,0,0,1-.8,4.1,10.78,10.78,0,0,1-2.1,3.4,9.63,9.63,0,0,1-3.2,2.4A8.85,8.85,0,0,1,173,378.8ZM164.5,368a10.3,10.3,0,0,0,.6,3.5,11.09,11.09,0,0,0,1.7,3,7.05,7.05,0,0,0,2.7,2.1,7.73,7.73,0,0,0,3.4.8,8.17,8.17,0,0,0,3.5-.8,7.77,7.77,0,0,0,2.6-2.1,11.09,11.09,0,0,0,1.7-3,10.16,10.16,0,0,0,.6-3.4,10.3,10.3,0,0,0-.6-3.5,9.23,9.23,0,0,0-1.8-3,7.89,7.89,0,0,0-2.7-2.1,7.42,7.42,0,0,0-3.4-.8,8.17,8.17,0,0,0-3.5.8,10.91,10.91,0,0,0-2.7,2.1,11.09,11.09,0,0,0-1.7,3A18.61,18.61,0,0,0,164.5,368Z"/><path class="cls-1" d="M194.4,378.6V357.3h7.1a11.52,11.52,0,0,1,4.4.8,9.37,9.37,0,0,1,3.2,2.3,8.78,8.78,0,0,1,1.9,3.4,14,14,0,0,1,.6,4.1,12.32,12.32,0,0,1-.7,4.4,10.53,10.53,0,0,1-2,3.4,8,8,0,0,1-3.2,2.2,11.22,11.22,0,0,1-4.2.8h-7.1ZM210,367.9a11,11,0,0,0-.6-3.7,7.67,7.67,0,0,0-1.7-2.9,6.62,6.62,0,0,0-2.7-1.9,8.73,8.73,0,0,0-3.7-.7h-5.5v18.5h5.5a8.73,8.73,0,0,0,3.7-.7,6.83,6.83,0,0,0,2.7-2,7.21,7.21,0,0,0,1.6-3A8,8,0,0,0,210,367.9Z"/><path class="cls-1" d="M231.6,377.4a8,8,0,0,0,3.6-.8,5,5,0,0,0,2.2-2.1,13.43,13.43,0,0,0,1.2-3,18.7,18.7,0,0,0,.3-3.4V357.4h1.5v10.7a18.41,18.41,0,0,1-.5,4.1,9.54,9.54,0,0,1-1.5,3.4,7.81,7.81,0,0,1-2.7,2.4,8.57,8.57,0,0,1-4.1.9,9.42,9.42,0,0,1-4.3-.9,6.36,6.36,0,0,1-2.7-2.4,13,13,0,0,1-1.5-3.4,17.52,17.52,0,0,1-.4-4V357.5h1.5v10.7a20.68,20.68,0,0,0,.3,3.5,7.29,7.29,0,0,0,1.2,3,5.83,5.83,0,0,0,2.3,2.1A12.28,12.28,0,0,0,231.6,377.4Z"/><path class="cls-1" d="M251.5,367.8a9.86,9.86,0,0,1,.7-3.8,9,9,0,0,1,2-3.4,9.68,9.68,0,0,1,7.5-3.3,8.76,8.76,0,0,1,4.9,1.3,9.43,9.43,0,0,1,3,3.3l-1.3.7a9.06,9.06,0,0,0-1.3-1.9,6.57,6.57,0,0,0-1.7-1.2,13.36,13.36,0,0,0-1.8-.7,12.26,12.26,0,0,0-1.9-.2,8,8,0,0,0-3.6.8,8.9,8.9,0,0,0-2.6,2.1,8.7,8.7,0,0,0-1.6,3,12.76,12.76,0,0,0-.6,3.3,8.57,8.57,0,0,0,.7,3.6,9.23,9.23,0,0,0,1.8,3,9,9,0,0,0,2.7,2.1,7.73,7.73,0,0,0,3.4.8,15,15,0,0,0,2-.2,5.6,5.6,0,0,0,2-.8,7.63,7.63,0,0,0,1.7-1.3,6.4,6.4,0,0,0,1.3-1.9l1.3.6a8,8,0,0,1-1.5,2.1,11.6,11.6,0,0,1-2.1,1.6,11.72,11.72,0,0,1-2.4.9,11.34,11.34,0,0,1-2.5.3,7.67,7.67,0,0,1-4-1,9.5,9.5,0,0,1-3.1-2.5,11.26,11.26,0,0,1-2.1-3.5A6.91,6.91,0,0,1,251.5,367.8Z"/><path class="cls-1" d="M295.2,358.7h-7.8v19.9h-1.5V358.7h-7.8v-1.4h17.1v1.4Z"/><path class="cls-1" d="M305.4,378.6V357.3h1.5v21.3Z"/><path class="cls-1" d="M328.4,378.8a8.72,8.72,0,0,1-4-.9,9.23,9.23,0,0,1-3.1-2.4,8.68,8.68,0,0,1-2-3.5,10.88,10.88,0,0,1-.7-4,11.5,11.5,0,0,1,.8-4.1,11.26,11.26,0,0,1,2.1-3.5,9.63,9.63,0,0,1,3.2-2.4,9,9,0,0,1,4-.9,8.92,8.92,0,0,1,7.2,3.4,11,11,0,0,1,2,3.5,10.72,10.72,0,0,1,.7,3.9,11.5,11.5,0,0,1-.8,4.1,10.78,10.78,0,0,1-2.1,3.4,9.63,9.63,0,0,1-3.2,2.4A8.85,8.85,0,0,1,328.4,378.8ZM319.9,368a10.3,10.3,0,0,0,.6,3.5,11.09,11.09,0,0,0,1.7,3,7.05,7.05,0,0,0,2.7,2.1,7.73,7.73,0,0,0,3.4.8,8.17,8.17,0,0,0,3.5-.8,7.77,7.77,0,0,0,2.6-2.1,11.09,11.09,0,0,0,1.7-3,10.16,10.16,0,0,0,.6-3.4,10.3,10.3,0,0,0-.6-3.5,9.23,9.23,0,0,0-1.8-3,7.89,7.89,0,0,0-2.7-2.1,7.42,7.42,0,0,0-3.4-.8,8.17,8.17,0,0,0-3.5.8,10.91,10.91,0,0,0-2.7,2.1,11.09,11.09,0,0,0-1.7,3A18.61,18.61,0,0,0,319.9,368Z"/><path class="cls-1" d="M351.3,360.2v18.4h-1.5V357.3H351l14.9,18.8V357.3h1.5v21.3H366Z"/><path class="cls-1" d="M392.6,360.9a7.6,7.6,0,0,0-5.9-2.3q-3.15,0-4.5,1.2a4.16,4.16,0,0,0-1.4,3.2,3.06,3.06,0,0,0,.4,1.7,3.1,3.1,0,0,0,1.1,1.2,8.35,8.35,0,0,0,1.9.8c.8.2,1.7.4,2.8.7a23.27,23.27,0,0,1,3.1.8,13.35,13.35,0,0,1,2.4,1.1,5.72,5.72,0,0,1,1.5,1.6,5.36,5.36,0,0,1,.5,2.4,5.14,5.14,0,0,1-.6,2.5,5.48,5.48,0,0,1-1.6,1.8,8.81,8.81,0,0,1-2.4,1.1,14.56,14.56,0,0,1-3.1.4,12,12,0,0,1-8.4-3.2l.8-1.2a9.55,9.55,0,0,0,3.3,2.2,10.46,10.46,0,0,0,4.4.8,8,8,0,0,0,4.4-1,3.37,3.37,0,0,0,1.6-3.1,3.42,3.42,0,0,0-.4-1.8,4.89,4.89,0,0,0-1.2-1.3,5.79,5.79,0,0,0-2.1-.9c-.9-.2-1.8-.5-2.9-.8a21.68,21.68,0,0,1-3-.8,9,9,0,0,1-2.2-1,3.74,3.74,0,0,1-1.3-1.5,4.77,4.77,0,0,1-.5-2.2,4.87,4.87,0,0,1,.6-2.5,7,7,0,0,1,1.5-1.9,7.71,7.71,0,0,1,2.4-1.2,9.72,9.72,0,0,1,3.1-.4,10.64,10.64,0,0,1,3.7.6,7,7,0,0,1,2.9,1.9Z"/><path class="cls-1" d="M226.5,85.7c0,75.8-42.6,79.2-42.6,79.2l65.8,87.4c12.2-7.1,20.9-14.4,25.5-21.5,3.8-5.9,8.4-18.2,8.4-43.1V66.8H249.8V0H173C173.1,0,226.5,0,226.5,85.7Z"/><path class="cls-1" d="M28.3,84.1h82.8v35.1h6.3c11.4,0,21.9-3.5,21.9-28.6,0-8.5-1.7-15-4.9-18.8-2.8-3.2-9-5-17.7-5H28.3V0H0V253.2H28.3Z"/><polygon class="cls-1" points="110.3 253.2 158.1 253.2 110.3 186.9 110.3 253.2"/><path class="cls-1" d="M366.9,0V201.5c0,19.3-3.4,36.6-10.2,51.7h38.4V0Z"/></g></g></svg>